<svg width="170px" height="25px" viewBox="0 0 170 25" version="1.1" xmlns="http://www.w3.org/2000/svg" xmlns:xlink="http://www.w3.org/1999/xlink">
    <g id="Page-1" stroke="none" stroke-width="1" fill="none" fill-rule="evenodd">
        <g id="Artboard-Copy-3" transform="translate(-580.000000, -415.000000)">
            <g id="logo" transform="translate(580.000000, 415.000000)">
                <polygon id="Fill-1" fill="#FFFFFF" points="158.3425 19.6475833 169.565833 19.6475833 169.565833 17.16425 158.3425 17.16425"></polygon>
                <polygon id="Fill-2" fill="#FFFFFF" points="158.34225 2.77808333 158.34225 15.3555833 169.565583 15.3555833 169.565583 12.87225 160.826417 12.87225 160.826417 10.0930833 160.865583 10.0930833 160.865583 7.60975 160.826417 7.60975 160.826417 5.26141667 169.565583 5.26141667 169.565583 2.77808333"></polygon>
                <polygon id="Fill-3" fill="#FFFFFF" points="74.7658333 22.13675 77.2483333 22.13675 77.2483333 2.79091667 74.7658333 2.79091667"></polygon>
                <polygon id="Fill-4" fill="#FFFFFF" points="81.8533333 5.29508333 95.5233333 5.29508333 95.5233333 2.81175 81.8533333 2.81175"></polygon>
                <polygon id="Fill-5" fill="#FFFFFF" points="81.8525 6.82325 81.8525 9.30658333 87.4466667 9.30658333 87.4466667 19.6199167 89.9291667 19.6199167 89.9291667 9.30658333 95.5233333 9.30658333 95.5233333 6.82325 89.9291667 6.82325"></polygon>
                <polygon id="Fill-6" fill="#FFFFFF" points="21.0566667 5.25758333 34.7266667 5.25758333 34.7266667 2.77508333 21.0566667 2.77508333"></polygon>
                <polygon id="Fill-7" fill="#FFFFFF" points="21.05575 6.78625 21.05575 9.26875 26.6499167 9.26875 26.6499167 19.6195833 29.1324167 19.6195833 29.1324167 9.26875 34.7265833 9.26875 34.7265833 6.78625"></polygon>
                <g id="Group-29" transform="translate(0.000000, 0.028417)">
                    <path d="M47.31225,1.78058333 C42.1330833,1.78058333 37.93475,5.97891667 37.93475,11.1580833 C37.93475,16.3364167 42.1330833,20.53475 47.31225,20.53475 C52.4905833,20.53475 56.6889167,16.3364167 56.6889167,11.1580833 C56.6889167,5.97891667 52.4905833,1.78058333 47.31225,1.78058333 M47.31225,4.28391667 C51.10225,4.28391667 54.1855833,7.36808333 54.1855833,11.1580833 C54.1855833,14.9480833 51.10225,18.0314167 47.31225,18.0314167 C43.52225,18.0314167 40.4389167,14.9480833 40.4389167,11.1580833 C40.4389167,7.36808333 43.52225,4.28391667 47.31225,4.28391667" id="Fill-8" fill="#FFFFFF"></path>
                    <path d="M108.191167,1.78058333 C103.012833,1.78058333 98.8145,5.97891667 98.8145,11.1580833 C98.8145,16.3364167 103.012833,20.53475 108.191167,20.53475 C113.370333,20.53475 117.568667,16.3364167 117.568667,11.1580833 C117.568667,5.97891667 113.370333,1.78058333 108.191167,1.78058333 M108.191167,4.28391667 C111.982,4.28391667 115.0645,7.36808333 115.0645,11.1580833 C115.0645,14.9480833 111.982,18.0314167 108.191167,18.0314167 C104.401167,18.0314167 101.317833,14.9480833 101.317833,11.1580833 C101.317833,7.36808333 104.401167,4.28391667 108.191167,4.28391667" id="Fill-10" fill="#FFFFFF"></path>
                    <path d="M49.1921667,11.1393333 C49.1921667,12.1768333 48.3513333,13.0176667 47.3146667,13.0176667 C46.278,13.0176667 45.4363333,12.1768333 45.4363333,11.1393333 C45.4363333,10.1018333 46.278,9.26183333 47.3146667,9.26183333 C48.3513333,9.26183333 49.1921667,10.1018333 49.1921667,11.1393333" id="Fill-12" fill="#FFFFFF"></path>
                    <path d="M110.327417,11.1393333 C110.327417,12.1768333 109.48575,13.0176667 108.449083,13.0176667 C107.41325,13.0176667 106.571583,12.1768333 106.571583,11.1393333 C106.571583,10.1018333 107.41325,9.26183333 108.449083,9.26183333 C109.48575,9.26183333 110.327417,10.1018333 110.327417,11.1393333" id="Fill-14" fill="#FFFFFF"></path>
                    <polygon id="Fill-16" fill="#FFFFFF" points="125.751417 19.5906667 125.751417 2.669 135.558083 2.669 135.558083 5.1515 128.233917 5.1515 128.233917 19.5906667"></polygon>
                    <mask id="mask-2" fill="white">
                        <polygon points="0 24.1666667 169.565 24.1666667 169.565 0.805 0 0.805"></polygon>
                    </mask>
                    <g id="Clip-19"></g>
                    <polygon id="Fill-18" fill="#FFFFFF" mask="url(#mask-2)" points="120.969167 19.5875 123.4725 19.5875 123.4725 2.76 120.969167 2.76"></polygon>
                    <polygon id="Fill-20" fill="#FFFFFF" mask="url(#mask-2)" points="145.77 18.9 148.2525 18.9 148.2525 4.40666667 145.77 4.40666667"></polygon>
                    <polygon id="Fill-21" fill="#FFFFFF" mask="url(#mask-2)" points="159.819167 9.97416667 165.0275 9.97416667 165.0275 7.49166667 159.819167 7.49166667"></polygon>
                    <path d="M140.377083,17.1036667 C141.332083,15.4361667 142.017083,13.8845 142.430417,11.9736667 C142.844583,10.0645 143.05125,8.167 143.05125,6.282 L143.05125,5.21866667 L150.019583,5.21866667 L150.019583,17.1036667 L140.377083,17.1036667 Z M152.51375,17.1036667 L152.51375,2.717 L140.567917,2.717 L140.567917,6.282 C140.567917,7.22533333 140.510417,8.18616667 140.39625,9.16616667 C140.282083,10.147 140.099583,11.1145 139.85125,12.0695 C139.602917,13.0245 139.279583,13.9478333 138.877917,14.8386667 C138.477083,15.7303333 137.99625,16.327 137.43625,17.1036667 L135.984583,17.1036667 L135.984583,19.5861667 L154.022083,19.5861667 L154.022083,17.1036667 L152.51375,17.1036667 Z" id="Fill-22" fill="#FFFFFF" mask="url(#mask-2)"></path>
                    <polygon id="Fill-23" fill="#FFFFFF" mask="url(#mask-2)" points="4.17183333 2.89058333 2.086 4.97725 0.000166666667 2.89058333 2.086 0.80475"></polygon>
                    <polygon id="Fill-24" fill="#FFFFFF" mask="url(#mask-2)" points="78.86425 22.0800833 76.7784167 24.16675 74.69175 22.0800833 76.7784167 19.99425"></polygon>
                    <polygon id="Fill-25" fill="#FFFFFF" mask="url(#mask-2)" points="138.103333 19.1593333 136.0175 21.246 133.930833 19.1593333 136.0175 17.0735"></polygon>
                    <path d="M70.4185833,11.6788333 L70.4185833,17.8021667 L72.8819167,20.2655 L72.8819167,2.77716667 L70.3994167,2.77716667 L70.3994167,6.4255 C70.3994167,7.08883333 70.3094167,7.68633333 70.13275,8.22133333 C69.9535833,8.75633333 69.69025,9.21383333 69.3394167,9.59633333 C68.9894167,9.97883333 68.5594167,10.2746667 68.05025,10.4846667 C67.5410833,10.6938333 66.9619167,10.7996667 66.3119167,10.7996667 C65.7385833,10.7996667 65.2069167,10.698 64.71775,10.4938333 C64.2269167,10.2905 63.79775,10.0105 63.42775,9.65383333 C63.0585833,9.298 62.7685833,8.87383333 62.5585833,8.38383333 C62.3485833,7.89383333 62.2444167,7.36883333 62.2444167,6.808 L62.2444167,2.73966667 L59.7619167,2.73966667 L59.7619167,6.808 C59.7619167,7.72466667 59.93025,8.578 60.26775,9.36716667 C60.6044167,10.1571667 61.0694167,10.8413333 61.6610833,11.4205 C62.25275,12.0005 62.94775,12.4555 63.7435833,12.7863333 C64.5394167,13.118 65.39525,13.283 66.3119167,13.283 C67.1135833,13.283 67.86025,13.1363333 68.5469167,12.843 C69.2344167,12.5513333 69.85775,12.1621667 70.4185833,11.6788333" id="Fill-26" fill="#FFFFFF" mask="url(#mask-2)"></path>
                    <polyline id="Fill-27" fill="#FFFFFF" mask="url(#mask-2)" points="4.14008333 10.1098333 11.47425 2.79483333 14.98925 2.79483333 9.83091667 7.9515 21.6534167 19.6406667 18.11925 19.6406667 8.09341667 9.68983333 7.04258333 10.7206667 15.98175 19.6406667 12.4484167 19.6406667 4.14008333 11.3323333"></polyline>
                    <polygon id="Fill-28" fill="#FFFFFF" mask="url(#mask-2)" points="1.65583333 19.6333333 4.16 19.6333333 4.16 2.80416667 1.65583333 2.80416667"></polygon>
                </g>
            </g>
        </g>
    </g>
</svg>
