<?xml version="1.0" encoding="UTF-8"?>
<svg width="252px" height="251px" viewBox="0 0 252 251" version="1.1" xmlns="http://www.w3.org/2000/svg" xmlns:xlink="http://www.w3.org/1999/xlink">
    <g id="Page-1" stroke="none" stroke-width="1" fill="none" fill-rule="evenodd">
        <g id="Artboard-Copy-2" transform="translate(-539.000000, -302.000000)">
            <g id="preloader" transform="translate(540.000000, 303.000000)">
                <path d="M222.950823,202.665102 C239.884983,181.336474 250,154.349481 250,125 C250,55.9644063 194.035594,0 125,0 C55.9644063,0 0,55.9644063 0,125" id="Oval" stroke="#FFFFFF" stroke-linecap="round"></path>
                <g id="startup" transform="translate(208.584559, 213.445854) rotate(-170.000000) translate(-208.584559, -213.445854) translate(198.584559, 203.445854)" fill="#FFFFFF" fill-rule="nonzero">
                    <circle id="Oval" cx="0.422535211" cy="19.4366197" r="1"></circle>
                    <path d="M15.5618704,4.57965715 C15.242494,4.26031777 14.817859,4.08450704 14.3661972,4.08450704 C13.9145353,4.08450704 13.4898608,4.26039689 13.170524,4.57965715 C12.5112338,5.23882869 12.5112338,6.31133743 13.170524,6.97046942 C13.5002284,7.30005519 13.9331336,7.46478873 14.3661972,7.46478873 C14.799142,7.46478873 15.2322451,7.29997607 15.5618704,6.97046942 C16.2211606,6.31129787 16.2211606,5.23878913 15.5618704,4.57965715 Z M15.0000829,6.40873752 C14.6505534,6.75814354 14.0818014,6.75814354 13.7323511,6.40873752 C13.3828216,6.05933151 13.3828216,5.4907555 13.7323511,5.14130992 C13.9016748,4.97202681 14.1267539,4.87882023 14.3661972,4.87882023 C14.6056405,4.87882023 14.8307196,4.97202681 15.0000433,5.14130992 C15.3495727,5.4907555 15.3495727,6.05933151 15.0000829,6.40873752 Z" id="Shape"></path>
                    <path d="M4.85580343,15.9776374 C4.66439986,15.8823211 4.43204734,15.9602476 4.33673113,16.1516129 L3.87565058,17.0775926 C3.67514724,17.4801808 3.27190418,17.7493955 2.82316229,17.780088 L2.28689298,17.8167955 C2.19624234,17.8228492 2.13663115,17.7776973 2.10906194,17.7501281 C2.08149273,17.7225588 2.03622525,17.6628319 2.04239458,17.5722582 L2.07910212,17.0360267 C2.10983311,16.5873227 2.3790474,16.1840405 2.78159641,15.9835368 L3.70753624,15.5224556 C3.89893981,15.4271393 3.97682764,15.1947478 3.88151144,15.0033826 C3.7862338,14.8120173 3.55384272,14.7340907 3.36243915,14.8294071 L2.43649932,15.2904883 C1.78902777,15.6129136 1.3560948,16.2614657 1.30666301,16.9831246 L1.26995548,17.5193561 C1.25013649,17.808814 1.35640326,18.0924495 1.5615336,18.2975801 C1.75039232,18.4864391 2.00584128,18.5915493 2.27112262,18.5915493 C2.2939106,18.5915493 2.31685281,18.5907781 2.33975646,18.5891972 L2.87602577,18.5524896 C3.59768355,18.5030963 4.24623472,18.0702013 4.56865951,17.4226517 L5.02974007,16.4967105 C5.12505627,16.3053066 5.04716844,16.0729538 4.85580343,15.9776374 Z" id="Shape"></path>
                    <path d="M19.7293965,0.260925503 C19.5453656,0.0798509398 19.2918397,-0.0148415758 19.0343293,0.00189640904 L18.6691582,0.0251501129 C15.394846,0.233926236 12.3305423,1.81248598 10.261982,4.35611344 L9.40241597,5.4130255 L7.15298898,5.34704896 C7.1491607,5.34693192 7.14529335,5.3468929 7.14150414,5.3468929 C5.35752568,5.3468929 3.68030935,6.04075845 2.41881298,7.30067222 L0.114891594,9.6018135 C0.00531684608,9.71125417 -0.0294892503,9.87492747 0.0261380014,10.0193657 C0.081765253,10.163843 0.217317615,10.262086 0.372089505,10.2699673 L5.24900566,10.5202178 L5.05016949,10.7647328 C4.94997012,10.8879852 4.9341101,11.0594228 5.01008974,11.198867 C5.08649908,11.3391695 5.16658045,11.4772481 5.25009945,11.6131028 L4.09356827,12.9844081 C3.99469708,13.101652 3.97340715,13.2657545 4.03899574,13.4043403 C4.29162316,13.9374978 4.62691017,14.4165397 5.03567671,14.8281615 C5.45436554,15.2498494 5.94395566,15.5946753 6.49077467,15.8531582 C6.54421434,15.8784408 6.60152134,15.8908089 6.65847677,15.8908089 C6.74680066,15.8908089 6.83438233,15.8610005 6.90563522,15.8032954 C7.15478593,15.6014252 7.44202412,15.3619822 7.71984786,15.1304596 C7.91786369,14.9654208 8.12045001,14.7965973 8.30979362,14.6409223 C8.422806,14.7088497 8.5372247,14.7747092 8.65336221,14.8377985 C8.71211459,14.8697138 8.77653126,14.8854374 8.84071354,14.8854374 C8.92610763,14.8854374 9.01095481,14.8576578 9.08119203,14.8031911 L9.34850754,14.5960146 L9.60015835,19.4874858 C9.60812742,19.6420683 9.70645171,19.7774548 9.85106694,19.833014 C9.89685004,19.8505713 9.94443009,19.8591549 9.99169763,19.8591549 C10.0938502,19.8591549 10.1941668,19.8192413 10.2690917,19.744369 L12.5730521,17.4432278 C13.8345485,16.183275 14.5292251,14.5081499 14.5292251,12.7263154 L14.5292251,10.580615 L15.438129,9.87617599 C18.1620283,7.76500499 19.8209627,4.5815105 19.9895633,1.14191314 L19.9988996,0.951279591 C20.0116345,0.693616067 19.9133492,0.442039082 19.7293965,0.260925503 Z M1.29322054,9.53283271 L2.9734448,7.8546644 C4.08540387,6.74406595 5.56351058,6.13182245 7.13583985,6.13030082 L8.77985171,6.17852494 L5.8613742,9.76724253 L1.29322054,9.53283271 Z M7.21732752,14.5289456 C7.01259267,14.6995248 6.80270136,14.8744738 6.60792785,15.0344796 C6.23119385,14.8306975 5.89039881,14.5764284 5.59257425,14.2764713 C5.30412508,13.985995 5.05860733,13.655254 4.86063056,13.29092 L5.70738359,12.286914 C5.96340958,12.6299842 6.2436553,12.9549508 6.54640193,13.2593948 C6.54663631,13.2596289 6.54687069,13.259824 6.54710508,13.2600581 C6.54718321,13.2601361 6.54726134,13.2602532 6.54733946,13.2603312 C6.54745666,13.2604483 6.54757385,13.2605263 6.54769104,13.2606433 C6.88336869,13.5980561 7.24443799,13.9076894 7.62746131,14.1877092 C7.49222146,14.299842 7.35366116,14.4153302 7.21732752,14.5289456 Z M13.7449746,12.7263154 C13.7449746,14.2988666 13.1318638,15.7772715 12.0184984,16.8892746 L10.3382742,18.5674429 L10.1038115,14.0106533 L13.7449355,11.1886057 L13.7449355,12.7263154 L13.7449746,12.7263154 Z M19.2062503,1.10363817 C19.0488611,4.3145611 17.5002047,7.28643128 14.9573674,9.25726071 L8.80633715,14.0246212 C8.29623838,13.7269269 7.82078945,13.3754292 7.38565465,12.9771901 L6.83293696,12.4212471 C6.45202311,12.0000663 6.1146657,11.5417811 5.82742751,11.0516195 L10.8708348,4.85002055 C12.8018504,2.47552867 15.662435,1.00188371 18.7190821,0.807036397 L19.0842532,0.783782694 C19.1321067,0.780817456 19.1641392,0.804539355 19.1789054,0.819053412 C19.1936326,0.833528453 19.2179695,0.865014592 19.2156257,0.913043635 L19.2062503,1.10363817 Z" id="Shape"></path>
                </g>
            </g>
        </g>
    </g>
</svg>
