<?xml version="1.0" encoding="iso-8859-1"?>
<!-- Generator: Adobe Illustrator 17.0.0, SVG Export Plug-In . SVG Version: 6.00 Build 0)  -->
<!DOCTYPE svg PUBLIC "-//W3C//DTD SVG 1.1//EN" "http://www.w3.org/Graphics/SVG/1.1/DTD/svg11.dtd">
<svg version="1.1" id="Layer_1" xmlns="http://www.w3.org/2000/svg" xmlns:xlink="http://www.w3.org/1999/xlink" x="0px" y="0px"
	 width="17.156px" height="17.638px" viewBox="0 0 17.156 18.638" style="enable-background:new 0 0 17.156 17.638;"
	 xml:space="preserve">
<path d="M7.49,2c3.027,0,5.49,2.463,5.49,5.49c0,3.027-2.463,5.49-5.49,5.49S2,10.518,2,7.49C2,4.463,4.463,2,7.49,2 M7.49,0
	C3.353,0,0,3.353,0,7.49c0,4.137,3.353,7.49,7.49,7.49s7.49-3.354,7.49-7.49C14.98,3.353,11.627,0,7.49,0L7.49,0z"/>
<circle style="display:none;" cx="7.492" cy="7.476" r="1.5"/>
<rect x="12.902" y="10.784" transform="matrix(0.7071 -0.7071 0.7071 0.7071 -6.0999 14.0444)" width="2" height="7.202"/>
</svg>
